<?xml version="1.0" encoding="utf-8"?>
<!-- Generator: Adobe Illustrator 16.0.0, SVG Export Plug-In . SVG Version: 6.00 Build 0)  -->
<!DOCTYPE svg PUBLIC "-//W3C//DTD SVG 1.0//EN" "http://www.w3.org/TR/2001/REC-SVG-20010904/DTD/svg10.dtd">
<svg version="1.0" id="Layer_1" xmlns="http://www.w3.org/2000/svg" xmlns:xlink="http://www.w3.org/1999/xlink" x="0px" y="0px"
	 width="48.695px" height="48.697px" viewBox="0 0 48.695 48.697" enable-background="new 0 0 48.695 48.697" xml:space="preserve">
<path fill="#FFFFFF" d="M24.348,0C10.9,0,0,10.9,0,24.348s10.9,24.35,24.348,24.35s24.348-10.902,24.348-24.35S37.795,0,24.348,0z
	 M18.724,34.191c-5.442,0-9.845-4.4-9.845-9.843s4.402-9.843,9.845-9.843c2.657,0,4.879,0.97,6.594,2.573l-2.672,2.573
	c-0.731-0.703-2.01-1.519-3.922-1.519c-3.361,0-6.103,2.784-6.103,6.215c0,3.432,2.741,6.216,6.103,6.216
	c3.896,0,5.356-2.799,5.583-4.247h-5.583v-3.375h9.294c0.085,0.492,0.155,0.984,0.155,1.632
	C28.173,30.198,24.403,34.191,18.724,34.191z M39.814,25.756h-2.811v2.811h-2.813v-2.811h-2.813v-2.813h2.813v-2.812h2.813v2.812
	h2.811V25.756z"/>
</svg>
