<?xml version="1.0" encoding="utf-8"?>
<!-- Generator: Adobe Illustrator 16.0.0, SVG Export Plug-In . SVG Version: 6.00 Build 0)  -->
<!DOCTYPE svg PUBLIC "-//W3C//DTD SVG 1.0//EN" "http://www.w3.org/TR/2001/REC-SVG-20010904/DTD/svg10.dtd">
<svg version="1.0" id="Layer_1" xmlns="http://www.w3.org/2000/svg" xmlns:xlink="http://www.w3.org/1999/xlink" x="0px" y="0px"
	 width="48.696px" height="48.697px" viewBox="0 0 48.696 48.697" enable-background="new 0 0 48.696 48.697" xml:space="preserve">
<g>
	<path fill="#FFFFFF" d="M24.349,28.816c2.461,0,4.469-2.008,4.469-4.469s-2.008-4.469-4.469-4.469
		c-2.462,0-4.469,2.008-4.469,4.469S21.887,28.816,24.349,28.816z"/>
	<path fill="#FFFFFF" d="M32.73,15.411h-2.236c-0.334,0-0.558,0.224-0.558,0.556v2.238c0,0.332,0.224,0.557,0.558,0.557h2.236
		c0.333,0,0.557-0.225,0.557-0.557v-2.238C33.287,15.635,33.063,15.411,32.73,15.411z"/>
	<path fill="#FFFFFF" d="M31.055,24.348c0,3.691-3.018,6.707-6.706,6.707s-6.707-3.016-6.707-6.707c0-0.332,0-0.781,0.115-1.117
		H15.41v9.5c0,0.332,0.223,0.557,0.556,0.557H32.73c0.333,0,0.557-0.225,0.557-0.557v-9.5H30.94
		C31.055,23.566,31.055,24.016,31.055,24.348z"/>
	<path fill="#FFFFFF" d="M24.349,0C10.901,0,0,10.9,0,24.348s10.901,24.35,24.349,24.35s24.348-10.902,24.348-24.35
		S37.796,0,24.349,0z M35.524,33.287c0,1.232-1.004,2.236-2.237,2.236H15.41c-1.233,0-2.237-1.004-2.237-2.236V15.411
		c0-1.233,1.004-2.237,2.237-2.237h17.877c1.233,0,2.237,1.004,2.237,2.237V33.287z"/>
</g>
</svg>
