<?xml version="1.0" encoding="utf-8"?>
<!-- Generator: Adobe Illustrator 16.0.0, SVG Export Plug-In . SVG Version: 6.00 Build 0)  -->
<!DOCTYPE svg PUBLIC "-//W3C//DTD SVG 1.0//EN" "http://www.w3.org/TR/2001/REC-SVG-20010904/DTD/svg10.dtd">
<svg version="1.0" id="Layer_1" xmlns="http://www.w3.org/2000/svg" xmlns:xlink="http://www.w3.org/1999/xlink" x="0px" y="0px"
	 width="48.698px" height="48.697px" viewBox="0 0 48.698 48.697" enable-background="new 0 0 48.698 48.697" xml:space="preserve">
<path fill="#FFFFFF" d="M24.35,0C10.904,0,0,10.9,0,24.348s10.904,24.35,24.35,24.35c13.448,0,24.349-10.902,24.349-24.35
	S37.798,0,24.35,0z M34.712,19.035c0.011,0.229,0.016,0.459,0.016,0.69c0,7.065-5.378,15.213-15.213,15.213
	c-3.018,0-5.829-0.886-8.194-2.403c0.416,0.05,0.844,0.074,1.274,0.074c2.506,0,4.81-0.854,6.642-2.287
	c-2.341-0.044-4.314-1.59-4.995-3.713c0.326,0.063,0.661,0.095,1.006,0.095c0.489,0,0.961-0.065,1.409-0.187
	c-2.446-0.492-4.29-2.652-4.29-5.242c0-0.023,0-0.046,0-0.068c0.722,0.401,1.547,0.642,2.423,0.669
	c-1.436-0.958-2.379-2.596-2.379-4.45c0-0.98,0.264-1.898,0.723-2.688c2.639,3.235,6.578,5.364,11.021,5.587
	c-0.092-0.392-0.139-0.799-0.139-1.219c0-2.952,2.394-5.346,5.347-5.346c1.538,0,2.927,0.648,3.903,1.688
	c1.217-0.239,2.361-0.684,3.395-1.297c-0.4,1.249-1.247,2.295-2.352,2.957c1.081-0.129,2.111-0.416,3.071-0.841
	C36.663,17.338,35.757,18.28,34.712,19.035z"/>
</svg>
