<?xml version="1.0" encoding="iso-8859-1"?>
<!-- Generator: Adobe Illustrator 19.0.0, SVG Export Plug-In . SVG Version: 6.00 Build 0)  -->
<svg version="1.1" id="Layer_1" xmlns="http://www.w3.org/2000/svg" xmlns:xlink="http://www.w3.org/1999/xlink" x="0px" y="0px"
	 viewBox="0 0 512 512" style="enable-background:new 0 0 512 512;" xml:space="preserve">
<circle style="fill:#006775;" cx="255.917" cy="255.999" r="255.917"/>
<path style="fill:#055661;" d="M511.506,241.335c0.329,4.779,0.494,9.723,0.494,14.666c0,141.389-114.528,255.917-255.917,255.917
	c-4.944,0-9.887-0.165-14.666-0.494L121.615,391.622l270.583-269.76l119.473,119.473L511.506,241.335L511.506,241.335z"/>
<path style="fill:#00CC96;" d="M128.865,117.579h254.269c6.28,0,11.37,5.091,11.37,11.37v254.269c0,6.28-5.091,11.37-11.37,11.37
	H128.865c-6.28,0-11.37-5.091-11.37-11.37V128.949C117.494,122.669,122.585,117.579,128.865,117.579z"/>
<rect x="124.577" y="158.449" style="fill:#EFEFF0;" width="262.842" height="229.061"/>
<g>
	<path style="fill:#FFFFFF;" d="M213.237,130.762h155.232c1.274,0,2.307,1.033,2.307,2.307v6.592c0,1.274-1.033,2.307-2.307,2.307
		H213.237c-1.274,0-2.307-1.033-2.307-2.307v-6.592C210.93,131.795,211.963,130.762,213.237,130.762z"/>
	<path style="fill:#FFFFFF;" d="M143.861,128.125c4.45,0,8.075,3.625,8.075,8.075s-3.625,8.075-8.075,8.075
		c-4.45,0-8.075-3.625-8.075-8.075S139.412,128.125,143.861,128.125z M186.377,128.125c4.45,0,8.075,3.625,8.075,8.075
		s-3.625,8.075-8.075,8.075c-4.45,0-8.075-3.625-8.075-8.075S181.927,128.125,186.377,128.125z M165.119,128.125
		c4.45,0,8.075,3.625,8.075,8.075s-3.625,8.075-8.075,8.075c-4.45,0-8.075-3.625-8.075-8.075S160.67,128.125,165.119,128.125z"/>
</g>
<path style="fill:#E31E24;" d="M265.146,314.337c8.075,0,16.808-1.977,22.412-4.614l4.285-2.142
	c10.876-5.768,17.797-13.348,23.235-24.224c2.637-5.438,3.79-9.558,4.944-15.655c2.472-14.831-2.307-29.991-11.041-41.692
	c-2.307-3.131-4.285-4.614-6.427-6.756c-8.733-8.239-21.752-14.007-33.947-14.007c-13.348,0-19.939,1.483-30.816,7.745
	c-6.427,3.79-13.183,10.052-17.303,16.479c-3.79,5.768-6.427,12.194-7.91,18.951c-2.307,11.37-1.154,23.235,3.625,33.453
	c0.329,0.823,0.659,1.319,0.989,1.977c0.329,0.823,0.824,1.319,1.154,2.142c3.79,7.25,13.018,16.973,20.104,20.599
	c5.438,2.637,6.921,4.285,14.666,5.933c3.131,0.659,8.239,1.648,12.029,1.648L265.146,314.337L265.146,314.337z"/>
<path style="fill:#E84F4F;" d="M204.998,188.273c-7.25,0-10.217,8.075-10.712,14.502c-0.824,11.7-2.966,7.745-13.018,12.689
	c-1.977,0.989-3.625,1.813-5.108,3.46c-4.285,4.779-2.142,11.7-0.165,16.973c2.802,7.25,1.154,7.086-3.296,11.7
	c-6.756,7.086-9.723,12.854-2.966,21.093c6.097,7.581,9.393,5.438,6.427,14.502c-1.977,5.933-5.273,14.172,1.813,18.951
	l-32.628,32.793l35.595,0.165v35.428c1.977-1.319,29.826-29.497,34.605-34.276c1.483-1.483,3.296-4.12,5.273-4.614
	c1.483,0.989,2.307,2.472,3.46,4.285c2.637,4.285,6.097,10.712,12.854,10.712c6.592,0,13.677-7.745,17.468-7.745
	c5.933,0,16.643,15.985,27.19,1.977c1.319-1.648,1.977-2.802,3.131-4.614c0.989-1.813,1.977-3.625,3.625-4.614
	c1.319,0.329,3.296,2.637,5.273,4.614l19.61,19.775c0.659,0.659,1.648,1.319,2.471,2.142l7.416,7.581
	c1.813,1.648,3.131,3.46,5.108,4.779v-35.43h35.1c-0.659-2.307-9.558-9.887-12.029-12.36l-16.149-16.314
	c-1.483-1.154-2.802-2.802-3.79-4.285c9.393-6.262,0.494-19.28,0.494-23.895c0-4.45,11.535-8.239,11.535-19.28
	c0-6.097-6.756-10.052-9.723-13.843c-4.779-6.262,1.977-8.733,1.977-19.939c0-10.546-16.808-11.37-19.116-14.666
	c-2.142-3.296-0.494-14.337-5.933-19.28c-6.592-6.097-18.456,0-22.247-2.966c-4.285-3.46-6.592-13.677-14.337-14.666h-2.637
	c-2.307,0.329-4.944,1.319-8.239,3.296c-2.966,1.813-5.768,3.954-8.733,3.954c-3.131,0-9.723-6.592-16.314-7.25h-2.142
	c-1.319,0.165-2.472,0.494-3.625,1.319c-5.768,3.625-6.592,9.064-10.546,13.018c-1.648,1.648-1.813,1.154-4.779,1.154
	c-4.12,0-7.086-0.494-11.535-0.494L204.998,188.273z"/>
<path style="fill:#FFD630;" d="M253.281,331.31c10.547,0,22.082-2.472,29.332-5.933l5.602-2.802
	c14.172-7.581,23.235-17.468,30.486-31.805c3.625-7.086,5.108-12.524,6.427-20.434c3.296-19.445-2.966-39.384-14.337-54.71
	c-2.966-3.954-5.602-6.097-8.569-8.898c-11.535-10.712-28.343-18.291-44.328-18.291c-17.468,0-26.201,1.977-40.373,10.052
	c-8.569,4.944-17.139,13.183-22.741,21.587c-4.944,7.581-8.569,15.985-10.381,24.883c-3.131,14.831-1.483,30.486,4.779,43.834
	c0.494,0.989,0.824,1.813,1.154,2.637c0.494,0.989,0.989,1.813,1.648,2.966c4.944,9.558,17.139,22.412,26.366,26.861
	c7.086,3.46,9.064,5.602,19.116,7.745c4.12,0.823,10.876,2.142,15.82,2.142L253.281,331.31L253.281,331.31z"/>
<path style="fill:#00CC96;" d="M253.446,317.139c8.404,0,17.633-1.977,23.4-4.779l4.45-2.307
	c11.37-6.097,18.621-14.007,24.389-25.378c2.802-5.602,4.12-10.052,5.108-16.314c2.637-15.491-2.307-31.474-11.535-43.834
	c-2.472-3.131-4.45-4.779-6.756-7.086c-9.229-8.569-22.741-14.666-35.595-14.666c-14.007,0-20.928,1.648-32.299,8.075
	c-6.756,3.954-13.843,10.546-18.127,17.303c-3.954,6.097-6.756,12.689-8.239,19.939c-2.472,11.865-1.154,24.389,3.79,35.1
	c0.329,0.824,0.659,1.483,0.989,2.142c0.494,0.824,0.824,1.319,1.318,2.307c3.955,7.581,13.677,17.797,21.093,21.587
	c5.602,2.802,7.25,4.45,15.325,6.097c3.296,0.659,8.733,1.813,12.524,1.813h0.165V317.139z"/>
<path style="fill:#FBFBFB;" d="M254.435,221.396l9.558,29.497h30.98l-25.048,18.127l9.558,29.497l-25.048-18.291l-25.048,18.291
	l9.558-29.497l-25.048-18.127h30.98L254.435,221.396z"/>
<path style="fill:#D9DADA;" d="M254.435,221.396l9.558,29.497h30.98l-25.048,18.127l9.558,29.497l-25.048-18.291v-58.665v-0.165
	H254.435z"/>
<g>
</g>
<g>
</g>
<g>
</g>
<g>
</g>
<g>
</g>
<g>
</g>
<g>
</g>
<g>
</g>
<g>
</g>
<g>
</g>
<g>
</g>
<g>
</g>
<g>
</g>
<g>
</g>
<g>
</g>
</svg>
